<svg width="110" height="36" viewBox="0 0 110 36" fill="none" xmlns="http://www.w3.org/2000/svg">
<path d="M99.9681 27.8927C98.3868 27.8927 96.9483 27.4831 95.6527 26.6638C94.3572 25.8446 93.3188 24.7586 92.5377 23.4059C91.7756 22.0341 91.3945 20.5194 91.3945 18.8619C91.3945 17.2043 91.7756 15.6897 92.5377 14.3179C93.3188 12.9461 94.3572 11.8601 95.6527 11.0599C96.9483 10.2407 98.3868 9.83105 99.9681 9.83105C101.073 9.83105 102.083 10.0311 102.997 10.4312C103.912 10.8123 104.693 11.3457 105.341 12.0316V10.2883H109.628V27.4355H105.341V25.6922C104.693 26.3781 103.912 26.921 102.997 27.3211C102.083 27.7022 101.073 27.8927 99.9681 27.8927ZM100.568 23.5202C101.407 23.5202 102.169 23.3106 102.855 22.8915C103.54 22.4723 104.083 21.9103 104.484 21.2053C104.903 20.5004 105.112 19.7192 105.112 18.8619C105.112 18.0045 104.903 17.2234 104.484 16.5184C104.083 15.8135 103.54 15.2515 102.855 14.8323C102.169 14.4132 101.407 14.2036 100.568 14.2036C99.73 14.2036 98.9679 14.4132 98.282 14.8323C97.5961 15.2515 97.0436 15.8135 96.6244 16.5184C96.2243 17.2234 96.0243 18.0045 96.0243 18.8619C96.0243 19.7192 96.2243 20.5004 96.6244 21.2053C97.0436 21.9103 97.5961 22.4723 98.282 22.8915C98.9679 23.3106 99.73 23.5202 100.568 23.5202Z" fill="currentColor"/>
<path d="M51.6169 28.0067C49.9212 28.0067 48.3685 27.597 46.9586 26.7778C45.5487 25.9585 44.4246 24.8535 43.5863 23.4627C42.767 22.0718 42.3574 20.5381 42.3574 18.8615C42.3574 17.1659 42.767 15.6321 43.5863 14.2604C44.4246 12.8695 45.5487 11.7645 46.9586 10.9452C48.3685 10.126 49.9212 9.71637 51.6169 9.71637C53.3316 9.71637 54.8844 10.126 56.2752 10.9452C57.6851 11.7645 58.7996 12.8695 59.6189 14.2604C60.4572 15.6321 60.8763 17.1659 60.8763 18.8615C60.8763 20.5381 60.4572 22.0718 59.6189 23.4627C58.7996 24.8535 57.6851 25.9585 56.2752 26.7778C54.8844 27.597 53.3316 28.0067 51.6169 28.0067ZM51.6169 23.5484C52.4742 23.5484 53.2459 23.3388 53.9317 22.9197C54.6367 22.5005 55.1892 21.9385 55.5893 21.2335C56.0085 20.5095 56.218 19.7189 56.218 18.8615C56.218 17.9851 56.0085 17.1944 55.5893 16.4895C55.1892 15.7846 54.6367 15.2225 53.9317 14.8034C53.2459 14.3842 52.4742 14.1746 51.6169 14.1746C50.7595 14.1746 49.9784 14.3842 49.2734 14.8034C48.5876 15.2225 48.035 15.7846 47.6159 16.4895C47.2158 17.1944 47.0157 17.9851 47.0157 18.8615C47.0157 19.7189 47.2158 20.5095 47.6159 21.2335C48.035 21.9385 48.5876 22.5005 49.2734 22.9197C49.9784 23.3388 50.7595 23.5484 51.6169 23.5484Z" fill="currentColor"/>
<path d="M20.9629 36.009V10.2883H25.2497V11.9744C25.9165 11.3076 26.6977 10.7837 27.5931 10.4026C28.5076 10.0216 29.5079 9.83105 30.5939 9.83105C32.1943 9.83105 33.6423 10.2407 34.9378 11.0599C36.2334 11.8601 37.2622 12.9461 38.0243 14.3179C38.8055 15.6897 39.196 17.2043 39.196 18.8619C39.196 20.5194 38.8055 22.0341 38.0243 23.4059C37.2622 24.7586 36.2334 25.8446 34.9378 26.6638C33.6423 27.4831 32.1943 27.8927 30.5939 27.8927C29.6794 27.8927 28.8315 27.7498 28.0504 27.464C27.2692 27.1973 26.5643 26.8258 25.9356 26.3495V36.009H20.9629ZM30.0223 23.5202C30.8606 23.5202 31.6227 23.3106 32.3086 22.8915C32.9945 22.4723 33.5375 21.9103 33.9376 21.2053C34.3567 20.5004 34.5663 19.7192 34.5663 18.8619C34.5663 18.0045 34.3567 17.2234 33.9376 16.5184C33.5375 15.8135 32.9945 15.2515 32.3086 14.8323C31.6227 14.4132 30.8606 14.2036 30.0223 14.2036C29.184 14.2036 28.4219 14.4132 27.736 14.8323C27.0501 15.2515 26.4976 15.8135 26.0785 16.5184C25.6784 17.2234 25.4783 18.0045 25.4783 18.8619C25.4783 19.7192 25.6784 20.5004 26.0785 21.2053C26.4976 21.9103 27.0501 22.4723 27.736 22.8915C28.4219 23.3106 29.184 23.5202 30.0223 23.5202Z" fill="currentColor"/>
<path d="M10.5094 27.4359V10.2887H15.482V27.4359H10.5094ZM12.9957 7.80237C12.2527 7.80237 11.6239 7.54516 11.1095 7.03075C10.5951 6.51634 10.3379 5.88761 10.3379 5.14456C10.3379 4.38247 10.5951 3.75374 11.1095 3.25838C11.6239 2.74396 12.2527 2.48676 12.9957 2.48676C13.7578 2.48676 14.3865 2.74396 14.8819 3.25838C15.3963 3.75374 15.6535 4.38247 15.6535 5.14456C15.6535 5.88761 15.3963 6.51634 14.8819 7.03075C14.3865 7.54516 13.7578 7.80237 12.9957 7.80237Z" fill="currentColor"/>
<path d="M0 27.4354V0H4.97267V27.4354H0Z" fill="currentColor"/>
<path d="M88.3984 10.1826C88.4694 10.561 88.5521 11.176 88.6467 12.0274C88.7413 12.8789 88.7886 13.7658 88.7886 14.6882C88.7886 17.1479 88.6113 19.241 88.2565 20.9676C87.9017 22.6705 87.3459 24.0659 86.5891 25.1539C85.8322 26.2182 84.8625 26.9986 83.68 27.4953C82.5211 27.9683 81.1375 28.2049 79.5292 28.2049C77.6371 28.2049 76.218 27.4244 75.272 25.8634C74.6334 26.7858 73.8884 27.4125 73.0369 27.7437C72.2091 28.0511 71.204 28.2049 70.0214 28.2049C69.028 28.2049 68.1884 28.063 67.5025 27.7791C66.8166 27.4717 66.2608 27.046 65.8351 26.502C65.4094 25.9343 65.1019 25.2721 64.9127 24.5153C64.7235 23.7348 64.6289 22.8597 64.6289 21.89V10.1826H70.2343V21.7481C70.2343 22.434 70.3525 23.0252 70.589 23.5219C70.8255 23.9949 71.1803 24.2315 71.6533 24.2315C72.4338 24.2315 73.0014 23.6875 73.3562 22.5995C73.7346 21.4879 73.9238 19.6904 73.9238 17.207V10.1826H79.5292V10.9276C79.5292 11.4243 79.5174 12.0511 79.4937 12.8079C79.4937 13.5647 79.4937 14.4044 79.4937 15.3268C79.4937 16.2492 79.4819 17.1361 79.4582 17.9875C79.4582 18.839 79.4582 19.6076 79.4582 20.2935C79.4582 20.9794 79.4582 21.4643 79.4582 21.7481C79.4582 22.434 79.5765 23.0252 79.813 23.5219C80.0495 23.9949 80.4043 24.2315 80.8773 24.2315C81.3976 24.2315 81.8115 23.9831 82.119 23.4864C82.4265 22.9661 82.6512 22.2802 82.7931 21.4288C82.9586 20.5773 83.0651 19.5958 83.1124 18.4842C83.1597 17.3489 83.1833 16.1782 83.1833 14.972C83.1833 13.7658 83.1242 12.7843 83.0059 12.0274C82.9113 11.2706 82.8404 10.6556 82.7931 10.1826H88.3984Z" fill="currentColor"/>
</svg>
